<svg xmlns="http://www.w3.org/2000/svg" width="512" height="512" viewBox="0 0 512 512">
  <rect width="512" height="512" fill="#2c5f2d" rx="64"/>
  <path fill="#97bc62" d="M256 80c-97 0-176 79-176 176s79 176 176 176 176-79 176-176S353 80 256 80zm0 304c-70.7 0-128-57.3-128-128s57.3-128 128-128 128 57.3 128 128-57.3 128-128 128z"/>
  <path fill="#ffc107" d="M256 168c-48.5 0-88 39.5-88 88s39.5 88 88 88 88-39.5 88-88-39.5-88-88-88zm0 128c-22.1 0-40-17.9-40-40s17.9-40 40-40 40 17.9 40 40-17.9 40-40 40z"/>
  <path fill="#fff" d="M232 232h48v72H232z"/>
</svg>
